<?xml version="1.0" encoding="utf-8"?>
<!-- Generator: Adobe Illustrator 24.0.0, SVG Export Plug-In . SVG Version: 6.00 Build 0)  -->
<svg version="1.1" id="Layer_1" xmlns="http://www.w3.org/2000/svg" xmlns:xlink="http://www.w3.org/1999/xlink" x="0px" y="0px"
	 viewBox="0 0 120 46" style="enable-background:new 0 0 120 46;" xml:space="preserve">
<style type="text/css">
	.st0{fill:url(#SVGID_1_);}
	.st1{fill:url(#SVGID_2_);}
	.st2{fill:#D7D7D7;}
</style>
<g>
	<g>
		<linearGradient id="SVGID_1_" gradientUnits="userSpaceOnUse" x1="93.0627" y1="34.0809" x2="114.9086" y2="12.235">
			<stop  offset="5.327789e-09" style="stop-color:#5D3FD3"/>
			<stop  offset="0.138" style="stop-color:#575ED2"/>
			<stop  offset="0.4383" style="stop-color:#4B9DD0"/>
			<stop  offset="0.6925" style="stop-color:#42CBCF"/>
			<stop  offset="0.8875" style="stop-color:#3CE7CE"/>
			<stop  offset="1" style="stop-color:#3AF2CE"/>
		</linearGradient>
		<path class="st0" d="M109.23,27.75c-1.66-4.54-3.29-9.01-4.92-13.49c-0.02,0-0.05,0-0.07,0c-0.21,0.58-0.42,1.16-0.63,1.74
			c-0.47,1.32-0.94,2.64-1.41,3.96c-0.41,1.15-0.82,2.31-1.24,3.46c-0.53,1.47-1.07,2.94-1.61,4.42c-0.52,1.43-1.04,2.87-1.56,4.3
			c-0.17,0.48-0.27,0.56-0.76,0.56c-1.69,0-3.38,0-5.08,0c-0.42,0-0.52-0.16-0.38-0.55c1-2.74,2-5.48,3-8.22
			c1.01-2.78,2-5.56,3.01-8.34c1.01-2.78,2.02-5.56,3.02-8.34c0.46-1.26,0.91-2.52,1.36-3.78c0.13-0.37,0.3-0.5,0.69-0.5
			c0.89,0,1.79,0,2.68,0c0.35,0,0.54,0.13,0.65,0.46c0.46,1.27,0.91,2.54,1.37,3.81c0.55,1.52,1.11,3.04,1.66,4.56
			c1.2,3.29,2.39,6.59,3.6,9.89c1.08,2.95,2.16,5.9,3.25,8.85c0.2,0.54,0.39,1.07,0.59,1.61c0.13,0.36,0.01,0.54-0.37,0.54
			c-2.85,0-5.71,0.01-8.56,0c-0.52,0-0.83-0.25-1.01-0.73c-0.44-1.17-0.89-2.35-1.34-3.52c-0.03-0.07-0.05-0.14-0.07-0.21
			c-0.1-0.32,0.01-0.48,0.35-0.49c0.3-0.01,0.6,0,0.9,0c0.84,0,1.68,0,2.52,0C108.96,27.75,109.07,27.75,109.23,27.75z"/>
		<linearGradient id="SVGID_2_" gradientUnits="userSpaceOnUse" x1="80.4618" y1="29.3981" x2="103.133" y2="6.727">
			<stop  offset="5.327789e-09" style="stop-color:#5D3FD3"/>
			<stop  offset="0.138" style="stop-color:#575ED2"/>
			<stop  offset="0.4383" style="stop-color:#4B9DD0"/>
			<stop  offset="0.6925" style="stop-color:#42CBCF"/>
			<stop  offset="0.8875" style="stop-color:#3CE7CE"/>
			<stop  offset="1" style="stop-color:#3AF2CE"/>
		</linearGradient>
		<path class="st1" d="M94.04,3.47c-0.45,1.26-0.9,2.52-1.36,3.78c-1.01,2.78-2.02,5.56-3.02,8.34c-1.01,2.78-2,5.56-3.01,8.34
			c-0.99,2.74-2,5.48-3,8.22c-0.14,0.39-0.03,0.55,0.38,0.55c1.69,0,3.38,0,5.08,0c0.5,0,0.59-0.08,0.76-0.56
			c0.52-1.43,1.04-2.87,1.56-4.3c0.53-1.47,1.07-2.94,1.61-4.42c0.42-1.15,0.83-2.3,1.24-3.46c0.47-1.32,0.94-2.64,1.41-3.96
			c0.21-0.58,0.42-1.16,0.63-1.74l3.69-10.66L94.04,3.47z"/>
	</g>
	<g>
		<path class="st2" d="M2,32.7l5.28-20.08h6.6l5.28,20.08h-3.9l-1.09-4.42H6.99L5.9,32.7H2z M7.88,24.78h5.39L10.84,15h-0.52
			L7.88,24.78z"/>
		<path class="st2" d="M21.68,32.7V12.61h3.61V32.7H21.68z"/>
		<path class="st2" d="M34.76,32.7c-0.94,0-1.7-0.29-2.28-0.88c-0.58-0.58-0.88-1.36-0.88-2.34v-8.03h-3.56v-2.98h3.56v-4.42h3.61
			v4.42h3.9v2.98h-3.9v7.4c0,0.57,0.27,0.86,0.8,0.86h2.75v2.98H34.76z"/>
		<path class="st2" d="M47.81,32.93c-1.11,0-2.08-0.25-2.91-0.76c-0.83-0.51-1.48-1.21-1.94-2.11c-0.46-0.9-0.69-1.93-0.69-3.1
			v-8.49h3.61v8.2c0,1.07,0.26,1.87,0.79,2.41c0.53,0.54,1.28,0.8,2.25,0.8c1.11,0,1.97-0.37,2.58-1.1
			c0.61-0.74,0.92-1.76,0.92-3.08v-7.23h3.61V32.7h-3.56v-1.86h-0.52c-0.23,0.48-0.66,0.95-1.29,1.41
			C50.05,32.7,49.1,32.93,47.81,32.93z"/>
		<path class="st2" d="M60.06,32.7V18.47h3.56v1.55h0.52c0.25-0.48,0.66-0.89,1.23-1.25c0.57-0.35,1.33-0.53,2.27-0.53
			c1.01,0,1.83,0.2,2.44,0.59c0.61,0.39,1.08,0.9,1.41,1.53H72c0.32-0.61,0.78-1.12,1.38-1.52c0.59-0.4,1.43-0.6,2.52-0.6
			c0.88,0,1.68,0.19,2.4,0.56c0.72,0.37,1.29,0.94,1.72,1.69c0.43,0.76,0.65,1.71,0.65,2.85v9.35h-3.61V23.6
			c0-0.78-0.2-1.37-0.6-1.76c-0.4-0.39-0.97-0.59-1.69-0.59c-0.82,0-1.46,0.26-1.91,0.79c-0.45,0.53-0.67,1.28-0.67,2.25v8.41h-3.61
			V23.6c0-0.78-0.2-1.37-0.6-1.76c-0.4-0.39-0.97-0.59-1.69-0.59c-0.82,0-1.46,0.26-1.91,0.79c-0.45,0.53-0.67,1.28-0.67,2.25v8.41
			H60.06z"/>
	</g>
	<g>
		<path class="st2" d="M3.89,38.95h1.75c0.93,0,1.35,0.48,1.35,1.09c0,0.73-0.5,1.14-1.33,1.14H4.42v1.49H3.89V38.95z M4.42,40.74
			h1.16c0.51,0,0.87-0.15,0.87-0.69c0-0.42-0.28-0.66-0.87-0.66H4.42V40.74z"/>
		<path class="st2" d="M7.58,40.74c0-0.24,0-0.48-0.01-0.72h0.48c0.01,0.08,0.02,0.36,0.02,0.6c0.17-0.41,0.56-0.67,1.07-0.67v0.48
			c-0.61-0.01-1.07,0.36-1.07,1.14v1.11h-0.5V40.74z"/>
		<path class="st2" d="M9.94,41.46c0.03,0.51,0.37,0.88,0.91,0.88c0.41,0,0.64-0.17,0.79-0.43h0.5c-0.14,0.39-0.52,0.83-1.31,0.83
			c-0.95,0-1.38-0.69-1.38-1.39c0-0.8,0.53-1.41,1.37-1.41c1.01,0,1.36,0.74,1.36,1.38c0,0.04,0,0.08,0,0.13H9.94z M11.65,41.1
			c-0.02-0.31-0.19-0.77-0.85-0.77c-0.54,0-0.81,0.34-0.86,0.77H11.65z"/>
		<path class="st2" d="M15.35,41.84c-0.13,0.48-0.55,0.9-1.3,0.9c-0.94,0-1.4-0.64-1.4-1.39c0-0.75,0.51-1.41,1.4-1.41
			c0.89,0,1.23,0.57,1.29,0.92h-0.5c-0.09-0.25-0.3-0.52-0.79-0.52c-0.56,0-0.89,0.42-0.89,1c0,0.55,0.31,0.99,0.89,0.99
			c0.43,0,0.67-0.2,0.8-0.5H15.35z"/>
		<path class="st2" d="M16.02,38.73h0.5v0.6h-0.5V38.73z M16.02,40.02h0.5v2.65h-0.5V40.02z"/>
		<path class="st2" d="M17.64,41.86c0.09,0.31,0.36,0.5,0.84,0.5c0.51,0,0.69-0.18,0.69-0.41c0-0.22-0.13-0.37-0.81-0.45
			c-0.93-0.12-1.11-0.44-1.11-0.77c0-0.34,0.27-0.78,1.12-0.78c0.92,0,1.18,0.47,1.2,0.79h-0.5c-0.04-0.16-0.15-0.42-0.73-0.42
			c-0.49,0-0.6,0.21-0.6,0.36c0,0.2,0.12,0.32,0.73,0.4c1,0.13,1.18,0.44,1.18,0.83c0,0.48-0.36,0.83-1.22,0.83
			c-0.77,0-1.22-0.33-1.31-0.88H17.64z"/>
		<path class="st2" d="M20.33,38.73h0.5v0.6h-0.5V38.73z M20.33,40.02h0.5v2.65h-0.5V40.02z"/>
		<path class="st2" d="M24.3,41.34c0,0.74-0.48,1.4-1.43,1.4c-0.9,0-1.4-0.66-1.4-1.4c0-0.76,0.53-1.4,1.42-1.4
			C23.82,39.94,24.3,40.64,24.3,41.34z M21.99,41.34c0,0.5,0.32,0.99,0.9,0.99c0.61,0,0.9-0.45,0.9-0.98c0-0.53-0.32-1-0.91-1
			C22.28,40.35,21.99,40.81,21.99,41.34z M23.88,38.68l-0.86,0.84h-0.47l0.73-0.84H23.88z"/>
		<path class="st2" d="M24.95,40.68c0-0.22,0-0.47-0.01-0.67h0.48c0.01,0.09,0.02,0.31,0.02,0.49c0.12-0.25,0.39-0.56,0.96-0.56
			c0.62,0,1.03,0.38,1.03,1.11v1.61h-0.5v-1.52c0-0.44-0.17-0.78-0.66-0.78c-0.55,0-0.82,0.42-0.82,1.03v1.27h-0.5V40.68z"/>
		<path class="st2" d="M32.13,42.01c0,0.26,0.02,0.59,0.02,0.66h-0.47c-0.02-0.1-0.03-0.3-0.03-0.39c-0.14,0.28-0.44,0.46-1,0.46
			c-0.75,0-1.02-0.45-1.02-0.85c0-0.68,0.62-0.87,1.37-0.87c0.32,0,0.56,0,0.65,0v-0.14c0-0.29-0.12-0.56-0.69-0.56
			c-0.51,0-0.63,0.22-0.68,0.47h-0.5c0.03-0.35,0.27-0.84,1.18-0.84c0.96,0,1.18,0.47,1.18,0.91V42.01z M31.64,41.38
			c-0.08,0-0.26,0-0.63,0c-0.61,0-0.89,0.13-0.89,0.49c0,0.26,0.19,0.49,0.63,0.49c0.7,0,0.89-0.41,0.89-0.86V41.38z"/>
		<path class="st2" d="M33,40.74c0-0.24,0-0.48-0.01-0.72h0.48c0.01,0.08,0.02,0.36,0.02,0.6c0.17-0.41,0.56-0.67,1.07-0.67v0.48
			c-0.61-0.01-1.07,0.36-1.07,1.14v1.11H33V40.74z"/>
		<path class="st2" d="M34.93,40.02h0.53v-0.85h0.5v0.85h0.69v0.39h-0.69v1.45c0,0.3,0.08,0.44,0.37,0.44c0.08,0,0.18,0,0.26-0.02
			v0.37c-0.12,0.04-0.26,0.05-0.41,0.05c-0.55,0-0.72-0.25-0.72-0.77v-1.52h-0.53V40.02z"/>
		<path class="st2" d="M37.23,38.73h0.5v0.6h-0.5V38.73z M37.23,40.02h0.5v2.65h-0.5V40.02z"/>
		<path class="st2" d="M38.77,42.67v-2.26h-0.5v-0.39h0.5v-0.36c0-0.6,0.26-0.97,0.88-0.97c0.13,0,0.24,0.01,0.31,0.03v0.41
			c-0.07-0.02-0.17-0.02-0.24-0.02c-0.35,0-0.46,0.15-0.46,0.58v0.33h0.62v0.39h-0.62v2.26H38.77z"/>
		<path class="st2" d="M40.4,38.73h0.5v0.6h-0.5V38.73z M40.4,40.02h0.5v2.65h-0.5V40.02z"/>
		<path class="st2" d="M44.25,41.84c-0.13,0.48-0.55,0.9-1.3,0.9c-0.94,0-1.4-0.64-1.4-1.39c0-0.75,0.51-1.41,1.4-1.41
			c0.89,0,1.23,0.57,1.29,0.92h-0.5c-0.09-0.25-0.3-0.52-0.79-0.52c-0.56,0-0.89,0.42-0.89,1c0,0.55,0.31,0.99,0.89,0.99
			c0.43,0,0.67-0.2,0.8-0.5H44.25z"/>
		<path class="st2" d="M44.91,38.73h0.5v0.6h-0.5V38.73z M44.91,40.02h0.5v2.65h-0.5V40.02z"/>
		<path class="st2" d="M48.59,42.01c0,0.26,0.02,0.59,0.02,0.66h-0.47c-0.02-0.1-0.03-0.3-0.03-0.39c-0.14,0.28-0.44,0.46-1,0.46
			c-0.75,0-1.02-0.45-1.02-0.85c0-0.68,0.62-0.87,1.37-0.87c0.32,0,0.56,0,0.65,0v-0.14c0-0.29-0.12-0.56-0.69-0.56
			c-0.51,0-0.63,0.22-0.68,0.47h-0.5c0.03-0.35,0.27-0.84,1.18-0.84c0.96,0,1.18,0.47,1.18,0.91V42.01z M48.1,41.38
			c-0.08,0-0.26,0-0.63,0c-0.61,0-0.89,0.13-0.89,0.49c0,0.26,0.19,0.49,0.63,0.49c0.7,0,0.89-0.41,0.89-0.86V41.38z"/>
		<path class="st2" d="M49.44,42.67v-3.94h0.5v3.94H49.44z"/>
		<path class="st2" d="M50.45,43.38c0.28-0.62,0.39-1.11,0.43-1.57h0.51c-0.04,0.46-0.24,1.14-0.51,1.57H50.45z"/>
		<path class="st2" d="M53.89,41.46c0.03,0.51,0.37,0.88,0.91,0.88c0.41,0,0.64-0.17,0.79-0.43h0.5c-0.14,0.39-0.52,0.83-1.31,0.83
			c-0.95,0-1.38-0.69-1.38-1.39c0-0.8,0.53-1.41,1.37-1.41c1.01,0,1.36,0.74,1.36,1.38c0,0.04,0,0.08,0,0.13H53.89z M55.6,41.1
			c-0.02-0.31-0.19-0.77-0.85-0.77c-0.54,0-0.81,0.34-0.86,0.77H55.6z"/>
		<path class="st2" d="M56.42,40.02h0.53v-0.85h0.5v0.85h0.69v0.39h-0.69v1.45c0,0.3,0.08,0.44,0.37,0.44c0.08,0,0.18,0,0.26-0.02
			v0.37c-0.12,0.04-0.26,0.05-0.41,0.05c-0.55,0-0.72-0.25-0.72-0.77v-1.52h-0.53V40.02z"/>
		<path class="st2" d="M58.72,38.73h0.5v0.6h-0.5V38.73z M58.72,40.02h0.5v2.65h-0.5V40.02z"/>
		<path class="st2" d="M62.56,41.84c-0.13,0.48-0.55,0.9-1.3,0.9c-0.94,0-1.4-0.64-1.4-1.39c0-0.75,0.51-1.41,1.4-1.41
			c0.89,0,1.23,0.57,1.29,0.92h-0.5c-0.09-0.25-0.3-0.52-0.79-0.52c-0.56,0-0.89,0.42-0.89,1c0,0.55,0.31,0.99,0.89,0.99
			c0.43,0,0.67-0.2,0.8-0.5H62.56z"/>
		<path class="st2" d="M65.54,42.01c0,0.26,0.02,0.59,0.02,0.66h-0.47c-0.02-0.1-0.03-0.3-0.03-0.39c-0.14,0.28-0.44,0.46-1,0.46
			c-0.75,0-1.02-0.45-1.02-0.85c0-0.68,0.62-0.87,1.37-0.87c0.32,0,0.56,0,0.65,0v-0.14c0-0.29-0.12-0.56-0.69-0.56
			c-0.51,0-0.63,0.22-0.68,0.47h-0.5c0.03-0.35,0.27-0.84,1.18-0.84c0.96,0,1.18,0.47,1.18,0.91V42.01z M65.05,41.38
			c-0.08,0-0.26,0-0.63,0c-0.61,0-0.89,0.13-0.89,0.49c0,0.26,0.19,0.49,0.63,0.49c0.7,0,0.89-0.41,0.89-0.86V41.38z"/>
		<path class="st2" d="M66.41,40.7c0-0.23,0-0.46-0.01-0.68h0.48c0.01,0.11,0.02,0.26,0.02,0.4c0.13-0.23,0.39-0.47,0.86-0.47
			c0.44,0,0.7,0.21,0.81,0.51c0.14-0.23,0.39-0.51,0.91-0.51c0.52,0,0.95,0.3,0.95,1.09v1.64h-0.49v-1.62c0-0.31-0.1-0.69-0.57-0.69
			c-0.42,0-0.7,0.29-0.7,0.86v1.45h-0.49v-1.64c0-0.32-0.11-0.67-0.58-0.67c-0.5,0-0.69,0.39-0.69,0.9v1.42h-0.49V40.7z"/>
		<path class="st2" d="M71.59,41.46c0.03,0.51,0.37,0.88,0.91,0.88c0.41,0,0.64-0.17,0.79-0.43h0.5c-0.14,0.39-0.52,0.83-1.31,0.83
			c-0.95,0-1.38-0.69-1.38-1.39c0-0.8,0.53-1.41,1.37-1.41c1.01,0,1.36,0.74,1.36,1.38c0,0.04,0,0.08,0,0.13H71.59z M73.3,41.1
			c-0.02-0.31-0.19-0.77-0.85-0.77c-0.54,0-0.81,0.34-0.86,0.77H73.3z"/>
		<path class="st2" d="M74.47,40.68c0-0.22,0-0.47-0.01-0.67h0.48c0.01,0.09,0.02,0.31,0.02,0.49c0.12-0.25,0.39-0.56,0.96-0.56
			c0.62,0,1.03,0.38,1.03,1.11v1.61h-0.5v-1.52c0-0.44-0.17-0.78-0.66-0.78c-0.55,0-0.82,0.42-0.82,1.03v1.27h-0.5V40.68z"/>
		<path class="st2" d="M77.4,40.02h0.53v-0.85h0.5v0.85h0.69v0.39h-0.69v1.45c0,0.3,0.08,0.44,0.37,0.44c0.08,0,0.18,0,0.26-0.02
			v0.37c-0.12,0.04-0.26,0.05-0.41,0.05c-0.55,0-0.72-0.25-0.72-0.77v-1.52H77.4V40.02z"/>
		<path class="st2" d="M79.94,41.46c0.03,0.51,0.37,0.88,0.91,0.88c0.41,0,0.64-0.17,0.79-0.43h0.5c-0.14,0.39-0.52,0.83-1.31,0.83
			c-0.95,0-1.38-0.69-1.38-1.39c0-0.8,0.53-1.41,1.37-1.41c1.01,0,1.36,0.74,1.36,1.38c0,0.04,0,0.08,0,0.13H79.94z M81.65,41.1
			c-0.02-0.31-0.19-0.77-0.85-0.77c-0.54,0-0.81,0.34-0.86,0.77H81.65z"/>
		<path class="st2" d="M84.35,40.74c0-0.24,0-0.48-0.01-0.72h0.48c0.01,0.08,0.02,0.36,0.02,0.6c0.17-0.41,0.56-0.67,1.07-0.67v0.48
			c-0.61-0.01-1.07,0.36-1.07,1.14v1.11h-0.5V40.74z"/>
		<path class="st2" d="M86.71,41.46c0.03,0.51,0.37,0.88,0.91,0.88c0.41,0,0.64-0.17,0.79-0.43h0.5c-0.14,0.39-0.52,0.83-1.31,0.83
			c-0.95,0-1.38-0.69-1.38-1.39c0-0.8,0.53-1.41,1.37-1.41c1.01,0,1.36,0.74,1.36,1.38c0,0.04,0,0.08,0,0.13H86.71z M88.42,41.1
			c-0.02-0.31-0.19-0.77-0.85-0.77c-0.54,0-0.81,0.34-0.86,0.77H88.42z"/>
		<path class="st2" d="M89.88,41.86c0.09,0.31,0.36,0.5,0.84,0.5c0.51,0,0.69-0.18,0.69-0.41c0-0.22-0.13-0.37-0.81-0.45
			c-0.93-0.12-1.11-0.44-1.11-0.77c0-0.34,0.27-0.78,1.12-0.78c0.92,0,1.18,0.47,1.2,0.79h-0.5c-0.04-0.16-0.15-0.42-0.73-0.42
			c-0.49,0-0.6,0.21-0.6,0.36c0,0.2,0.12,0.32,0.73,0.4c1,0.13,1.18,0.44,1.18,0.83c0,0.48-0.36,0.83-1.22,0.83
			c-0.77,0-1.22-0.33-1.31-0.88H89.88z"/>
		<path class="st2" d="M93.05,42.28v1.55h-0.5v-3.15c0-0.22,0-0.44-0.01-0.66h0.49c0.01,0.08,0.02,0.26,0.02,0.46
			c0.16-0.28,0.47-0.53,1.02-0.53c0.71,0,1.24,0.59,1.24,1.35c0,0.87-0.6,1.44-1.32,1.44C93.43,42.74,93.19,42.5,93.05,42.28z
			 M94.79,41.32c0-0.47-0.27-0.95-0.87-0.95c-0.62,0-0.89,0.44-0.89,0.99c0,0.56,0.29,0.97,0.88,0.97
			C94.49,42.32,94.79,41.85,94.79,41.32z"/>
		<path class="st2" d="M98.58,41.34c0,0.74-0.48,1.4-1.43,1.4c-0.9,0-1.4-0.66-1.4-1.4c0-0.76,0.53-1.4,1.42-1.4
			C98.09,39.94,98.58,40.64,98.58,41.34z M96.26,41.34c0,0.5,0.32,0.99,0.9,0.99c0.61,0,0.9-0.45,0.9-0.98c0-0.53-0.32-1-0.91-1
			C96.55,40.35,96.26,40.81,96.26,41.34z"/>
		<path class="st2" d="M99.23,40.68c0-0.22,0-0.47-0.01-0.67h0.48c0.01,0.09,0.02,0.31,0.02,0.49c0.12-0.25,0.39-0.56,0.96-0.56
			c0.62,0,1.03,0.38,1.03,1.11v1.61h-0.5v-1.52c0-0.44-0.17-0.78-0.66-0.78c-0.55,0-0.82,0.42-0.82,1.03v1.27h-0.5V40.68z"/>
		<path class="st2" d="M102.78,41.86c0.09,0.31,0.36,0.5,0.84,0.5c0.51,0,0.69-0.18,0.69-0.41c0-0.22-0.13-0.37-0.81-0.45
			c-0.93-0.12-1.11-0.44-1.11-0.77c0-0.34,0.27-0.78,1.12-0.78c0.92,0,1.18,0.47,1.2,0.79h-0.5c-0.04-0.16-0.15-0.42-0.73-0.42
			c-0.49,0-0.6,0.21-0.6,0.36c0,0.2,0.12,0.32,0.73,0.4c1,0.13,1.18,0.44,1.18,0.83c0,0.48-0.36,0.83-1.22,0.83
			c-0.77,0-1.22-0.33-1.31-0.88H102.78z"/>
		<path class="st2" d="M107.79,42.01c0,0.26,0.02,0.59,0.02,0.66h-0.47c-0.02-0.1-0.03-0.3-0.03-0.39c-0.14,0.28-0.44,0.46-1,0.46
			c-0.75,0-1.02-0.45-1.02-0.85c0-0.68,0.62-0.87,1.37-0.87c0.32,0,0.56,0,0.65,0v-0.14c0-0.29-0.12-0.56-0.69-0.56
			c-0.51,0-0.63,0.22-0.68,0.47h-0.5c0.03-0.35,0.27-0.84,1.18-0.84c0.96,0,1.18,0.47,1.18,0.91V42.01z M107.3,41.38
			c-0.08,0-0.26,0-0.63,0c-0.61,0-0.89,0.13-0.89,0.49c0,0.26,0.19,0.49,0.63,0.49c0.7,0,0.89-0.41,0.89-0.86V41.38z"/>
		<path class="st2" d="M108.65,38.73h0.5v1.7c0.13-0.21,0.42-0.48,0.98-0.48c0.74,0,1.28,0.58,1.28,1.35c0,0.89-0.55,1.44-1.31,1.44
			c-0.57,0-0.83-0.25-0.96-0.48c0,0.13-0.01,0.32-0.01,0.41h-0.48c0.01-0.34,0.01-0.61,0.01-0.91V38.73z M110.89,41.31
			c0-0.45-0.26-0.95-0.87-0.95c-0.61,0-0.9,0.42-0.9,0.98c0,0.6,0.35,0.98,0.9,0.98C110.64,42.32,110.89,41.84,110.89,41.31z"/>
		<path class="st2" d="M112.07,42.67v-3.94h0.5v3.94H112.07z"/>
		<path class="st2" d="M113.72,41.46c0.03,0.51,0.37,0.88,0.91,0.88c0.41,0,0.64-0.17,0.79-0.43h0.5c-0.14,0.39-0.52,0.83-1.31,0.83
			c-0.95,0-1.38-0.69-1.38-1.39c0-0.8,0.53-1.41,1.37-1.41c1.01,0,1.36,0.74,1.36,1.38c0,0.04,0,0.08,0,0.13H113.72z M115.43,41.1
			c-0.02-0.31-0.19-0.77-0.85-0.77c-0.54,0-0.81,0.34-0.86,0.77H115.43z"/>
		<path class="st2" d="M116.55,42.67v-0.86h0.55v0.86H116.55z"/>
	</g>
</g>
</svg>
